<?xml version="1.0" encoding="UTF-8"?>
<svg id="Layer_2" data-name="Layer 2" xmlns="http://www.w3.org/2000/svg" viewBox="0 0 339.84 339.84">
  <defs>
    <style>
      .cls-1 {
        fill: #707634;
      }

      .cls-1, .cls-2, .cls-3 {
        stroke-width: 0px;
      }

      .cls-2 {
        fill: #d43293;
      }

      .cls-3 {
        fill: #eb4f2b;
      }
    </style>
  </defs>
  <g id="Layer_1-2" data-name="Layer 1">
    <g>
      <path class="cls-3" d="M114.4,256.08v-112.44l-15.26-8.81v108.01c0,1.3-.5,2.55-1.41,3.48l-45.1,46.55c8.54,8.15,17.94,15.42,28.02,21.67l33.75-58.45Z"/>
      <path class="cls-3" d="M139.66,271.31v-113.08l-15.26-8.81v108.01c0,.88-.23,1.74-.67,2.5l-34.43,59.64c10.33,5.59,21.3,10.13,32.77,13.5l17.59-61.75Z"/>
      <path class="cls-3" d="M164.92,315.75v-142.95l-15.26-8.81v108.01c0,.46-.06.92-.19,1.37l-17.73,62.22c10.71,2.47,21.81,3.92,33.18,4.25v-24.09Z"/>
      <path class="cls-3" d="M252.03,94.88l18.93,10.93,43.58-25.16c-6.07-9.8-13.11-18.94-20.98-27.29l-41.52,41.52Z"/>
      <path class="cls-2" d="M131.74,4.25l17.17,60.28,96.78,55.88,15.26-8.81-93.54-54c-1.55-.89-2.5-2.54-2.5-4.33V0c-11.37.33-22.47,1.78-33.18,4.25Z"/>
      <path class="cls-1" d="M63.88,114.47l-43.6-25.17c-5.43,10.04-9.87,20.69-13.21,31.81l56.81,15.22v-21.86Z"/>
      <path class="cls-1" d="M0,164.92h63.88v-18.24l-59.41-15.92c-2.61,11.01-4.14,22.44-4.48,34.15Z"/>
      <path class="cls-1" d="M248.16,130.53l-25.25,14.58s0,0-.01,0l-25.24,14.57s-.02.01-.03.02l-22.71,13.11v17.62l93.54-54c.4-.23.83-.41,1.28-.52l62.74-15.75c-3.31-10.77-7.65-21.1-12.93-30.85l-46.1,26.62-25.29,14.6s0,0-.01,0Z"/>
      <path class="cls-1" d="M4.48,209.07l59.41-15.92v-18.24H0c.34,11.72,1.87,23.14,4.48,34.15Z"/>
      <path class="cls-3" d="M89.14,240.81v-111.75l-15.26-8.81v108.01c0,1.79-.95,3.44-2.5,4.33l-46.08,26.6c5.9,9.52,12.7,18.41,20.3,26.56l43.54-44.93Z"/>
      <path class="cls-1" d="M63.88,225.37v-21.86l-56.81,15.22c3.34,11.12,7.78,21.77,13.21,31.81l43.6-25.17Z"/>
      <path class="cls-2" d="M185.18,155.34l-93.54-54c-.4-.23-.77-.52-1.09-.85l-44.95-46.39c-7.6,8.15-14.41,17.04-20.3,26.56l46.08,26.6,98.54,56.89,15.26-8.81Z"/>
      <path class="cls-2" d="M314.54,259.19l-43.58-25.16-18.93,10.93,41.52,41.52c7.87-8.35,14.91-17.49,20.99-27.29Z"/>
      <path class="cls-3" d="M227.27,80.59l15.79,9.12,43.42-43.42c-8.35-7.87-17.49-14.91-27.29-20.99l-31.92,55.28Z"/>
      <path class="cls-1" d="M332.48,219.69l-60.78-15.26-96.78,55.88v17.62l93.54-54c1.55-.89,3.45-.89,5,0l46.1,26.62c5.27-9.75,9.62-20.07,12.93-30.85Z"/>
      <path class="cls-2" d="M250.54,319.56l-31.93-55.31-15.79,9.12,15.92,59.4c11.12-3.34,21.77-7.78,31.81-13.21Z"/>
      <path class="cls-1" d="M339.84,174.92h-67.54l-97.38,56.22v17.62l93.54-54c1.13-.65,2.46-.83,3.72-.52l62.95,15.81c2.75-11.31,4.37-23.06,4.72-35.12Z"/>
      <path class="cls-1" d="M335.12,129.8l-62.27,15.64-97.93,56.54v17.62l93.54-54c.76-.44,1.62-.67,2.5-.67h68.88c-.35-12.06-1.97-23.81-4.72-35.12Z"/>
      <path class="cls-2" d="M286.48,293.55l-43.42-43.42-15.79,9.12,31.92,55.28c9.8-6.07,18.94-13.11,27.29-20.99Z"/>
      <path class="cls-3" d="M202.82,66.47l15.79,9.12,31.93-55.31c-10.04-5.43-20.69-9.87-31.81-13.21l-15.92,59.4Z"/>
      <path class="cls-2" d="M193.85,278.55l-18.93,10.93v50.37c11.72-.34,23.14-1.87,34.15-4.48l-15.22-56.82Z"/>
      <path class="cls-3" d="M174.92,50.37l18.93,10.93,15.22-56.82c-11.01-2.61-22.44-4.14-34.15-4.48v50.37Z"/>
      <path class="cls-2" d="M52.63,46.97l44.62,46.05,97.93,56.54,15.26-8.81-93.54-54c-.76-.44-1.39-1.07-1.83-1.83l-34.42-59.61c-10.09,6.25-19.48,13.52-28.02,21.67Z"/>
      <path class="cls-2" d="M89.3,20.29l33.76,58.47,97.38,56.22,15.26-8.81-93.54-54c-1.12-.65-1.95-1.71-2.31-2.96L122.07,6.79c-11.47,3.37-22.44,7.91-32.77,13.5Z"/>
    </g>
  </g>
</svg>